<svg width="21" height="25" viewBox="0 0 21 25" fill="none" xmlns="http://www.w3.org/2000/svg">
<path d="M16.8041 13.7474C16.8163 12.8275 17.0665 11.9255 17.5317 11.1254C17.9968 10.3253 18.6617 9.65307 19.4644 9.17125C18.9544 8.4602 18.2817 7.87503 17.4996 7.46223C16.7174 7.04942 15.8475 6.82035 14.9588 6.7932C13.0632 6.59893 11.2254 7.90066 10.2594 7.90066C9.27467 7.90066 7.78737 6.81249 6.18577 6.84466C5.14982 6.87734 4.1402 7.17144 3.25529 7.69833C2.37038 8.22521 1.64036 8.9669 1.13634 9.85113C-1.04687 13.5415 0.581614 18.9652 2.67299 21.9482C3.71936 23.4089 4.94225 25.0406 6.5424 24.9827C8.10824 24.9193 8.69305 24.0079 10.5831 24.0079C12.4557 24.0079 13.0044 24.9827 14.637 24.9459C16.3172 24.9193 17.3758 23.4787 18.3855 22.0042C19.1373 20.9634 19.7158 19.8131 20.0996 18.5958C19.1234 18.1928 18.2904 17.5181 17.7044 16.6559C17.1184 15.7937 16.8052 14.7821 16.8041 13.7474Z" fill="black"/>
<path d="M13.7206 4.8315C14.6368 3.7578 15.0881 2.37773 14.9788 0.984375C13.5792 1.12789 12.2863 1.78097 11.3578 2.81348C10.9039 3.31789 10.5562 3.9047 10.3346 4.54038C10.1131 5.17606 10.022 5.84813 10.0667 6.51818C10.7668 6.52521 11.4594 6.37707 12.0923 6.08491C12.7252 5.79275 13.282 5.36419 13.7206 4.8315Z" fill="black"/>
</svg>
