<svg width="22" height="25" viewBox="0 0 22 25" fill="none" xmlns="http://www.w3.org/2000/svg">
<path d="M9.90467 12.4461L0.189453 22.9903C0.190366 22.9922 0.190365 22.995 0.191278 22.9968C0.48966 24.1418 1.51164 24.9844 2.72525 24.9844C3.21069 24.9844 3.66602 24.85 4.05656 24.6149L4.08758 24.5962L15.0228 18.1437L9.90467 12.4461Z" fill="#EA4335"/>
<path d="M19.7328 10.6506L19.7237 10.644L15.0025 7.84561L9.68359 12.6857L15.0216 18.1426L19.7173 15.3721C20.5403 14.9168 21.0997 14.0294 21.0997 13.0067C21.0997 11.9896 20.5485 11.1069 19.7328 10.6506Z" fill="#FBBC04"/>
<path d="M0.189033 2.97762C0.130634 3.19784 0.0996094 3.42925 0.0996094 3.66813V22.3007C0.0996094 22.5395 0.130634 22.771 0.189945 22.9902L10.2382 12.7157L0.189033 2.97762Z" fill="#4285F4"/>
<path d="M9.97578 12.9844L15.0036 7.84382L4.08113 1.36797C3.6842 1.12443 3.22066 0.984462 2.72518 0.984462C1.51158 0.984462 0.487771 1.82893 0.189389 2.9748C0.189389 2.97574 0.188477 2.97667 0.188477 2.9776L9.97578 12.9844Z" fill="#34A853"/>
</svg>
